<svg width="227" height="230" viewBox="0 0 227 230" fill="none" xmlns="http://www.w3.org/2000/svg">
<path d="M191.033 91.9551L191.031 91.9565C190.725 92.2103 190.216 92.5456 189.855 92.7837C189.385 93.0931 188.752 93.5015 187.984 93.9926C186.444 94.9766 184.315 96.3196 181.756 97.9225C176.636 101.13 169.767 105.394 162.383 109.943C148.732 118.352 140.797 123.398 136.034 126.907C131.284 130.407 130.263 131.98 129.734 133.279M191.033 91.9551L129.734 133.281C129.734 133.28 129.734 133.279 129.734 133.279M191.033 91.9551C191.984 91.1654 192.418 90.1719 192.634 89.5488C192.866 88.8778 193.006 88.1508 193.104 87.4429C193.301 86.0189 193.411 84.0356 193.468 81.3467C193.583 75.9237 193.491 66.9947 193.246 52.4832C193.082 42.8249 193.009 33.6489 193.022 26.6501C193.029 23.1484 193.058 20.2079 193.107 18.0311C193.132 16.9406 193.161 16.0631 193.194 15.4125C193.22 14.8978 193.244 14.6334 193.253 14.5393C193.256 14.4972 193.257 14.4892 193.254 14.5082M191.033 91.9551L193.254 14.5082M129.734 133.279C129.738 133.27 129.736 133.277 129.727 133.305C129.704 133.375 129.638 133.577 129.521 133.976C129.377 134.472 129.19 135.143 128.965 135.977C128.516 137.642 127.931 139.899 127.249 142.59C125.887 147.969 124.151 155.04 122.372 162.501L116.298 187.975L118.709 191.557L118.709 191.557C122.424 197.079 124.959 205.234 124.959 211.783C124.959 213.621 124.409 216.32 123.758 218.814C123.425 220.092 123.033 221.434 122.605 222.748C125.859 222.872 131.309 222.893 140.352 222.893H159.812C159.809 222.871 159.807 222.849 159.804 222.826C159.728 222.221 159.614 221.408 159.465 220.402C159.168 218.392 158.74 215.678 158.211 212.448C157.153 205.99 155.699 197.519 154.106 188.596C152.508 179.641 151.109 171.39 150.143 165.306C149.661 162.269 149.283 159.749 149.042 157.945C148.923 157.049 148.831 156.288 148.778 155.712C148.753 155.433 148.73 155.131 148.724 154.852C148.721 154.72 148.72 154.51 148.739 154.273C148.748 154.155 148.768 153.962 148.815 153.733C148.851 153.56 148.957 153.077 149.262 152.537L149.264 152.534C149.5 152.117 149.761 151.836 149.832 151.76L149.833 151.758C149.944 151.639 150.043 151.545 150.105 151.487C150.233 151.37 150.358 151.267 150.451 151.192C150.644 151.036 150.878 150.86 151.125 150.677C151.628 150.306 152.326 149.809 153.18 149.212C154.894 148.012 157.326 146.347 160.287 144.341C166.213 140.327 174.31 134.918 183.148 129.082L185.352 132.42L183.148 129.082C191.958 123.265 200.308 117.622 206.661 113.219C209.84 111.016 212.503 109.134 214.468 107.701C215.452 106.983 216.242 106.392 216.826 105.937C217.402 105.488 217.641 105.276 217.683 105.238C217.689 105.234 217.691 105.232 217.69 105.233C218.278 104.626 218.998 103.669 219.649 102.593C220.313 101.496 220.742 100.543 220.904 99.9876C220.895 100.019 220.895 100.016 220.903 99.9704C220.917 99.8814 220.959 99.6283 221.011 99.1336C221.081 98.4774 221.153 97.5853 221.224 96.4503C221.365 94.1852 221.496 91.0783 221.612 87.2053C221.844 79.4665 222.016 68.776 222.103 55.8658C222.242 35.2836 222.304 25.0332 222.067 19.3854C221.949 16.5622 221.764 15.1406 221.553 14.2564C221.372 13.4969 221.163 13.0575 220.654 12.0885C218.792 8.54772 216.193 6.33216 211.775 4.83402L211.775 4.83387C209.91 4.2012 208.478 3.96622 207.08 4.00385C205.654 4.04224 204.03 4.37065 201.785 5.15891L129.734 133.279ZM13.1959 223.846L13.1964 223.846C14.7149 224.432 16.3103 224.863 22.2758 225.106C28.2874 225.35 38.3004 225.393 56.4591 225.393L58.6123 225.393C79.715 225.394 89.6961 225.394 95.1516 224.599C97.8218 224.21 98.8823 223.689 99.5281 223.214C100.308 222.64 100.884 221.885 102.324 219.997L102.477 219.796L105.657 222.222L102.477 219.796C103.636 218.277 103.929 217.689 104.115 216.929C104.366 215.907 104.459 214.377 104.459 210.814C104.459 207.104 104.373 205.66 104.119 204.704C103.937 204.016 103.647 203.465 102.263 201.733C100.817 199.923 99.8926 198.88 98.9826 198.157C98.1852 197.524 97.3063 197.069 95.8727 196.74C92.5739 195.984 87.1728 196.019 75.5809 196.372L75.4591 192.374L75.5809 196.372C70.1025 196.539 64.8198 196.75 60.7269 196.956C58.6786 197.059 56.9428 197.16 55.6359 197.252C54.9811 197.299 54.451 197.341 54.0515 197.38C53.6923 197.414 53.523 197.438 53.4804 197.443C53.4699 197.445 53.4671 197.445 53.4711 197.444L53.4707 197.445C52.2705 197.678 50.2575 197.963 48.4499 197.076C47.3503 196.537 46.4401 195.62 45.9481 194.386C45.5017 193.266 45.5164 192.182 45.6247 191.378C45.8314 189.844 46.5404 188.231 47.3293 186.728C48.1672 185.133 49.32 183.255 50.7474 181.093L50.7475 181.093C52.1867 178.915 53.5393 176.879 54.5599 175.353C55.0696 174.591 55.4997 173.951 55.8177 173.482L55.8392 173.451C56.08 173.096 56.3929 172.635 56.5742 172.41L56.5752 172.409C57.2599 171.561 58.5533 170.623 60.335 170.766C61.8246 170.885 62.7913 171.714 63.2038 172.125C64.0541 172.973 64.5533 174.065 64.8347 174.779C65.3961 176.202 65.8227 178.06 65.9222 179.893H75.9591C80.7099 179.893 83.6521 179.881 85.4947 179.807C85.3151 179.068 85.0921 178.19 84.8298 177.188C84.0535 174.221 82.9608 170.278 81.7063 165.899C79.1968 157.14 76.065 146.729 73.5721 139.062L73.5721 139.062C71.4617 132.57 68.1242 128.455 64.5305 126.446C61.0498 124.5 56.8396 124.245 52.1297 126.409L13.1959 223.846ZM13.1959 223.846C6.46216 221.248 2.93334 214.811 4.28806 208.115C4.33196 208.016 4.39638 207.875 4.48578 207.687C4.71666 207.201 5.05829 206.517 5.50901 205.641C6.40705 203.895 7.68617 201.485 9.2582 198.571C12.3993 192.749 16.6737 184.981 21.3245 176.627C30.6315 159.91 41.4041 140.922 47.5794 130.55M13.1959 223.846L47.5794 130.55M193.254 14.5082C193.518 13.1015 194.572 11.0872 196.343 9.11841M193.254 14.5082L196.343 9.11841M196.343 9.11841C198.093 7.17192 200.118 5.74425 201.784 5.15906L196.343 9.11841ZM47.5794 130.55C48.6209 128.802 50.3968 127.206 52.1295 126.409L47.5794 130.55ZM96.4445 180.742C96.4672 179.812 96.5062 178.69 96.561 177.404C96.727 173.509 97.0325 168.234 97.438 162.528C97.5428 161.054 97.6426 159.658 97.7371 158.336C98.5212 147.368 98.9396 141.517 98.8258 138.486C98.7926 137.603 98.7101 136.686 98.4814 135.846C98.2479 134.987 97.7528 133.804 96.5943 132.919C95.6322 132.184 94.6261 131.978 93.9792 131.913C93.962 131.14 93.9591 130.162 93.9591 128.893V125.893H106.871L106.759 128.468C106.759 128.468 106.759 128.468 106.759 128.468C106.692 130.003 106.63 131.094 106.551 131.901C106.55 131.907 106.549 131.912 106.549 131.918C106.505 131.927 106.461 131.937 106.416 131.947C105.716 132.109 104.66 132.479 103.749 133.453C102.9 134.362 102.541 135.411 102.362 136.207C102.182 137.006 102.113 137.885 102.087 138.779C101.998 141.915 102.423 147.896 103.223 159.158C103.3 160.237 103.38 161.365 103.463 162.543C103.868 168.256 104.173 173.534 104.34 177.43C104.395 178.709 104.434 179.825 104.458 180.752C103.296 180.832 101.896 180.875 100.459 180.874C99.0153 180.872 97.6095 180.826 96.4445 180.742ZM107.846 131.717C107.847 131.718 107.84 131.719 107.826 131.722C107.839 131.719 107.846 131.717 107.846 131.717ZM57.2698 177.442C57.2698 177.442 57.2725 177.446 57.2774 177.455C57.2722 177.447 57.2697 177.442 57.2698 177.442ZM119.237 222.463C119.237 222.463 119.248 222.466 119.269 222.472C119.247 222.467 119.237 222.464 119.237 222.463ZM85.9563 181.899C85.9534 181.97 85.9489 182 85.9471 181.996C85.9453 181.993 85.9463 181.954 85.9546 181.889C85.9552 181.892 85.9557 181.896 85.9563 181.899ZM87.7057 179.609C87.7557 179.591 87.7849 179.585 87.7868 179.586C87.7887 179.587 87.7638 179.595 87.7057 179.609ZM4.22263 208.272C4.22217 208.273 4.22627 208.262 4.23633 208.237C4.22816 208.259 4.22309 208.272 4.22263 208.272ZM132.959 71.8928C132.959 90.1182 118.185 104.893 99.9591 104.893C81.7337 104.893 66.9591 90.1182 66.9591 71.8928C66.9591 53.6674 81.7337 38.8928 99.9591 38.8928C118.185 38.8928 132.959 53.6674 132.959 71.8928Z" fill="#FF771D" stroke="#FF771D" stroke-width="8"/>
</svg>
