<svg width="11" height="10" viewBox="0 0 11 10" fill="none" xmlns="http://www.w3.org/2000/svg">
<path d="M9.73598 0.969995C9.80423 0.900361 9.88568 0.845042 9.97557 0.807278C10.0655 0.769513 10.162 0.750061 10.2595 0.750061C10.357 0.750061 10.4535 0.769513 10.5434 0.807278C10.6333 0.845042 10.7147 0.900361 10.783 0.969995C11.069 1.259 11.073 1.72599 10.793 2.01999L4.87998 9.01C4.81285 9.08372 4.73138 9.14297 4.64056 9.18412C4.54974 9.22527 4.45148 9.24746 4.35179 9.24934C4.2521 9.25121 4.15307 9.23272 4.06077 9.19501C3.96847 9.15729 3.88483 9.10114 3.81498 9.02999L0.21698 5.384C0.0782173 5.24248 0.000488281 5.05219 0.000488281 4.854C0.000488281 4.6558 0.0782173 4.46551 0.21698 4.32399C0.285226 4.25436 0.366679 4.19904 0.456569 4.16128C0.546459 4.12351 0.642979 4.10406 0.74048 4.10406C0.837981 4.10406 0.934502 4.12351 1.02439 4.16128C1.11428 4.19904 1.19573 4.25436 1.26398 4.32399L4.31598 7.417L9.71598 0.991995L9.73598 0.969995Z" fill="#2ECA6A"/>
</svg>
