<svg width="776" height="684" viewBox="0 0 776 684" fill="none" xmlns="http://www.w3.org/2000/svg">
<path d="M387.909 665.96C216.147 665.96 75.1573 531.566 64.5843 362.398L30.3433 396.639L18 384.272L72.6595 329.637L127.319 384.296L114.976 396.664L82.1413 363.829C93.3933 522.691 226.235 648.5 387.909 648.5C530.766 648.5 653.423 551.549 686.233 412.717L703.232 416.743C668.555 563.48 538.914 665.96 387.909 665.96ZM703.159 354.323L648.476 299.639L660.843 287.296L693.678 320.131C682.426 161.269 549.584 35.46 387.909 35.46C245.101 35.46 122.469 132.411 89.683 271.243L72.6595 267.217C107.337 120.48 236.977 18 387.909 18C559.672 18 700.662 152.393 711.259 321.537L745.476 287.296L757.843 299.639L703.159 354.323Z" fill="#FF771D" stroke="#FF771D" stroke-width="36"/>
<path d="M539.975 361.901C540.844 355.295 541.31 348.643 541.371 341.981C541.31 335.319 540.844 328.667 539.975 322.061L583.17 288.297C585.12 286.809 586.453 284.656 586.913 282.249C587.373 279.841 586.928 277.349 585.664 275.249L544.763 204.434C543.579 202.309 541.657 200.691 539.36 199.884C537.063 199.077 534.55 199.136 532.294 200.051L481.318 220.569C470.711 212.486 459.111 205.792 446.802 200.649L439.121 146.566C438.782 144.173 437.583 141.984 435.748 140.408C433.912 138.833 431.566 137.977 429.145 138H347.145C344.724 137.977 342.377 138.833 340.542 140.408C338.707 141.984 337.508 144.173 337.169 146.566L329.488 200.649C317.163 205.76 305.559 212.456 294.972 220.569L243.796 200.051C241.54 199.136 239.027 199.077 236.73 199.884C234.433 200.691 232.511 202.309 231.327 204.434L190.426 275.249C189.162 277.349 188.717 279.841 189.177 282.249C189.637 284.656 190.97 286.809 192.92 288.297L236.015 322.061C235.15 328.667 234.683 335.319 234.619 341.981C234.68 348.643 235.146 355.295 236.015 361.901L192.92 395.665C190.97 397.153 189.637 399.306 189.177 401.713C188.717 404.121 189.162 406.613 190.426 408.713L231.327 479.528C232.511 481.652 234.433 483.271 236.73 484.078C239.027 484.885 241.54 484.826 243.796 483.911L294.772 463.393C305.379 471.476 316.979 478.17 329.288 483.313L336.969 537.396C337.308 539.789 338.507 541.977 340.342 543.553C342.178 545.129 344.524 545.985 346.945 545.961H428.746C431.166 545.985 433.513 545.129 435.349 543.553C437.184 541.977 438.383 539.789 438.722 537.396L446.403 483.313C458.728 478.202 470.331 471.506 480.919 463.393L531.895 483.911C534.151 484.826 536.664 484.885 538.961 484.078C541.258 483.271 543.18 481.652 544.364 479.528L585.265 408.713C586.529 406.613 586.974 404.121 586.514 401.713C586.054 399.306 584.721 397.153 582.771 395.665L539.975 361.901ZM388.045 413.494C373.875 413.513 360.017 409.336 348.225 401.49C336.433 393.644 327.237 382.482 321.801 369.417C316.364 356.351 314.931 341.969 317.684 328.091C320.436 314.212 327.25 301.46 337.263 291.449C347.276 281.438 360.038 274.617 373.935 271.85C387.832 269.082 402.238 270.493 415.332 275.902C428.426 281.312 439.618 290.478 447.493 302.24C455.367 314.003 459.571 327.833 459.571 341.981C459.584 351.367 457.743 360.664 454.155 369.34C450.566 378.016 445.3 385.9 438.657 392.542C432.014 399.184 424.124 404.453 415.44 408.048C406.755 411.643 397.446 413.494 388.045 413.494Z" stroke="#831800" stroke-width="16.6667" stroke-linecap="round" stroke-linejoin="round"/>
</svg>
