<svg width="679" height="679" viewBox="0 0 679 679" fill="none" xmlns="http://www.w3.org/2000/svg">
<path d="M490.975 359.901C491.844 353.295 492.31 346.643 492.371 339.981C492.31 333.319 491.844 326.667 490.975 320.061L534.17 286.297C536.12 284.809 537.453 282.656 537.913 280.249C538.373 277.841 537.928 275.349 536.664 273.249L495.763 202.434C494.579 200.309 492.657 198.691 490.36 197.884C488.063 197.077 485.55 197.136 483.294 198.051L432.318 218.569C421.711 210.486 410.111 203.792 397.802 198.649L390.121 144.566C389.782 142.173 388.583 139.984 386.748 138.408C384.912 136.833 382.566 135.977 380.145 136H298.145C295.724 135.977 293.377 136.833 291.542 138.408C289.707 139.984 288.508 142.173 288.169 144.566L280.488 198.649C268.163 203.76 256.559 210.456 245.972 218.569L194.796 198.051C192.54 197.136 190.027 197.077 187.73 197.884C185.433 198.691 183.511 200.309 182.327 202.434L141.426 273.249C140.162 275.349 139.717 277.841 140.177 280.249C140.637 282.656 141.97 284.809 143.92 286.297L187.015 320.061C186.15 326.667 185.683 333.319 185.619 339.981C185.68 346.643 186.146 353.295 187.015 359.901L143.92 393.665C141.97 395.153 140.637 397.306 140.177 399.713C139.717 402.121 140.162 404.613 141.426 406.713L182.327 477.528C183.511 479.652 185.433 481.271 187.73 482.078C190.027 482.885 192.54 482.826 194.796 481.911L245.772 461.393C256.379 469.476 267.979 476.17 280.288 481.313L287.969 535.396C288.308 537.789 289.507 539.978 291.342 541.553C293.178 543.129 295.524 543.985 297.945 543.961H379.746C382.166 543.985 384.513 543.129 386.349 541.553C388.184 539.978 389.383 537.789 389.722 535.396L397.403 481.313C409.728 476.202 421.331 469.506 431.919 461.393L482.894 481.911C485.151 482.826 487.664 482.885 489.961 482.078C492.258 481.271 494.18 479.652 495.364 477.528L536.265 406.713C537.529 404.613 537.974 402.121 537.514 399.713C537.054 397.306 535.721 395.153 533.771 393.665L490.975 359.901ZM339.045 411.494C324.875 411.513 311.017 407.336 299.225 399.49C287.433 391.644 278.237 380.482 272.801 367.417C267.364 354.351 265.931 339.969 268.684 326.091C271.436 312.212 278.25 299.46 288.263 289.449C298.276 279.438 311.038 272.617 324.935 269.85C338.832 267.082 353.238 268.493 366.332 273.902C379.426 279.312 390.618 288.478 398.493 300.24C406.367 312.003 410.571 325.833 410.571 339.981C410.584 349.367 408.743 358.664 405.155 367.34C401.566 376.016 396.3 383.9 389.657 390.542C383.014 397.184 375.124 402.453 366.44 406.048C357.755 409.643 348.446 411.494 339.045 411.494Z" stroke="#031238" stroke-width="16.6667" stroke-linecap="round" stroke-linejoin="round"/>
<circle cx="339.5" cy="339.5" r="314" stroke="#4285F4" stroke-width="51"/>
</svg>
