<svg width="227" height="230" viewBox="0 0 227 230" fill="none" xmlns="http://www.w3.org/2000/svg">
<path d="M191.074 92.0622L191.072 92.0637C190.766 92.3175 190.257 92.6528 189.896 92.8909C189.426 93.2003 188.793 93.6087 188.025 94.0997C186.485 95.0837 184.356 96.4268 181.797 98.0297C176.677 101.237 169.808 105.501 162.424 110.05C148.773 118.46 140.838 123.506 136.075 127.014C131.325 130.514 130.304 132.087 129.775 133.386M191.074 92.0622L129.774 133.388C129.775 133.387 129.775 133.386 129.775 133.386M191.074 92.0622C192.024 91.2725 192.459 90.2791 192.675 89.656C192.907 88.985 193.047 88.258 193.145 87.5501C193.342 86.126 193.452 84.1428 193.509 81.4539C193.624 76.0308 193.532 67.1018 193.286 52.5904C193.123 42.9321 193.05 33.7561 193.063 26.7573C193.07 23.2556 193.099 20.3151 193.148 18.1383C193.173 17.0477 193.202 16.1703 193.235 15.5196C193.261 15.005 193.285 14.7406 193.294 14.6465C193.297 14.6044 193.298 14.5964 193.294 14.6154M191.074 92.0622L193.294 14.6154M129.775 133.386C129.779 133.377 129.776 133.384 129.768 133.412C129.745 133.482 129.679 133.685 129.562 134.084C129.417 134.579 129.231 135.25 129.006 136.084C128.557 137.749 127.972 140.006 127.29 142.697C125.928 148.077 124.192 155.148 122.413 162.608L116.339 188.082L118.749 191.664L118.75 191.664C122.465 197.186 125 205.341 125 211.89C125 213.728 124.45 216.427 123.799 218.921C123.466 220.199 123.074 221.541 122.645 222.855C125.9 222.98 131.35 223 140.393 223H159.853C159.85 222.978 159.847 222.956 159.845 222.934C159.768 222.328 159.655 221.515 159.506 220.509C159.209 218.499 158.781 215.785 158.252 212.555C157.194 206.098 155.74 197.626 154.147 188.703C152.549 179.748 151.15 171.497 150.184 165.414C149.702 162.376 149.324 159.856 149.083 158.052C148.964 157.156 148.872 156.395 148.819 155.819C148.794 155.54 148.771 155.238 148.765 154.96C148.762 154.827 148.761 154.618 148.78 154.38C148.789 154.262 148.809 154.069 148.856 153.84C148.892 153.667 148.998 153.184 149.303 152.644L149.305 152.641C149.541 152.224 149.802 151.943 149.872 151.867L149.874 151.865C149.985 151.746 150.084 151.652 150.146 151.595C150.274 151.478 150.399 151.374 150.491 151.299C150.685 151.144 150.918 150.967 151.166 150.784C151.669 150.413 152.367 149.916 153.221 149.319C154.935 148.119 157.367 146.454 160.328 144.448C166.254 140.434 174.351 135.025 183.189 129.189L185.393 132.527L183.189 129.189C191.999 123.372 200.349 117.729 206.702 113.326C209.88 111.123 212.544 109.241 214.509 107.808C215.493 107.09 216.283 106.499 216.867 106.044C217.443 105.595 217.682 105.383 217.724 105.346C217.73 105.341 217.732 105.339 217.731 105.34C218.318 104.734 219.039 103.776 219.69 102.7C220.354 101.603 220.783 100.65 220.945 100.095C220.936 100.126 220.936 100.124 220.944 100.078C220.958 99.9886 221 99.7354 221.052 99.2408C221.122 98.5846 221.194 97.6925 221.264 96.5575C221.406 94.2924 221.536 91.1855 221.653 87.3125C221.885 79.5737 222.057 68.8831 222.144 55.973C222.283 35.3908 222.345 25.1404 222.108 19.4926C221.99 16.6694 221.804 15.2478 221.594 14.3636C221.413 13.6041 221.204 13.1647 220.695 12.1957C218.833 8.65489 216.234 6.43934 211.816 4.9412L211.816 4.94105C209.951 4.30838 208.519 4.0734 207.121 4.11103C205.694 4.14942 204.071 4.47783 201.826 5.26608L129.775 133.386ZM13.2368 223.953L13.2373 223.953C14.7558 224.54 16.3512 224.971 22.3167 225.213C28.3282 225.457 38.3413 225.5 56.5 225.5L58.6532 225.5C79.7559 225.501 89.737 225.501 95.1925 224.706C97.8627 224.317 98.9232 223.796 99.569 223.321C100.349 222.747 100.925 221.992 102.365 220.104L102.518 219.903L105.698 222.329L102.518 219.903C103.677 218.384 103.969 217.796 104.156 217.036C104.407 216.015 104.5 214.484 104.5 210.921C104.5 207.212 104.414 205.767 104.16 204.811C103.978 204.123 103.688 203.572 102.304 201.84C100.858 200.03 99.9335 198.987 99.0235 198.265C98.2261 197.632 97.3472 197.176 95.9136 196.848C92.6148 196.091 87.2137 196.126 75.6218 196.479L75.5 192.481L75.6218 196.479C70.1434 196.646 64.8607 196.858 60.7678 197.063C58.7194 197.166 56.9837 197.267 55.6768 197.36C55.022 197.406 54.4919 197.449 54.0924 197.487C53.7332 197.521 53.5639 197.545 53.5213 197.551C53.5108 197.552 53.508 197.552 53.512 197.552L53.5116 197.552C52.3114 197.785 50.2984 198.07 48.4908 197.183C47.3912 196.644 46.481 195.727 45.989 194.493C45.5426 193.373 45.5573 192.289 45.6656 191.486C45.8723 189.952 46.5813 188.338 47.3702 186.836C48.2081 185.24 49.3609 183.362 50.7883 181.201L50.7884 181.201C52.2276 179.022 53.5802 176.986 54.6007 175.46C55.1105 174.698 55.5406 174.058 55.8586 173.59L55.8801 173.558C56.1209 173.203 56.4338 172.742 56.6151 172.517L56.6161 172.516C57.3008 171.668 58.5942 170.73 60.3759 170.873C61.8655 170.992 62.8322 171.821 63.2447 172.232C64.095 173.08 64.5942 174.173 64.8756 174.886C65.437 176.309 65.8636 178.167 65.9631 180H76C80.7508 180 83.693 179.988 85.5355 179.914C85.356 179.175 85.133 178.297 84.8707 177.295C84.0944 174.329 83.0017 170.385 81.7472 166.006C79.2377 157.247 76.1059 146.836 73.613 139.169L73.613 139.169C71.5026 132.677 68.1651 128.562 64.5714 126.553C61.0906 124.607 56.8805 124.352 52.1706 126.517L13.2368 223.953ZM13.2368 223.953C6.50305 221.355 2.97424 214.918 4.32895 208.223C4.37285 208.123 4.43727 207.982 4.52668 207.794C4.75756 207.308 5.09919 206.624 5.5499 205.748C6.44794 204.002 7.72706 201.592 9.2991 198.678C12.4402 192.856 16.7146 185.088 21.3654 176.734C30.6724 160.017 41.445 141.03 47.6203 130.657M13.2368 223.953L47.6203 130.657M193.294 14.6154C193.559 13.2087 194.613 11.1944 196.383 9.22559M193.294 14.6154L196.383 9.22559M196.383 9.22559C198.134 7.2791 200.159 5.85142 201.825 5.26624L196.383 9.22559ZM47.6203 130.657C48.6618 128.909 50.4377 127.313 52.1703 126.517L47.6203 130.657ZM96.4854 180.849C96.5081 179.919 96.5471 178.797 96.6019 177.512C96.7679 173.616 97.0734 168.341 97.4789 162.635C97.5837 161.161 97.6835 159.765 97.778 158.443C98.5621 147.476 98.9804 141.624 98.8667 138.593C98.8335 137.71 98.751 136.794 98.5223 135.953C98.2888 135.094 97.7936 133.911 96.6352 133.026C95.6731 132.292 94.667 132.085 94.0201 132.021C94.0028 131.247 94 130.269 94 129V126H106.912L106.8 128.575C106.8 128.575 106.8 128.575 106.8 128.575C106.732 130.11 106.671 131.201 106.592 132.008C106.591 132.014 106.59 132.02 106.59 132.025C106.546 132.034 106.502 132.044 106.457 132.054C105.757 132.216 104.701 132.586 103.79 133.56C102.941 134.469 102.581 135.518 102.403 136.314C102.223 137.113 102.154 137.992 102.128 138.886C102.039 142.022 102.464 148.003 103.264 159.265C103.34 160.344 103.421 161.472 103.504 162.651C103.909 168.363 104.214 173.641 104.381 177.537C104.436 178.816 104.475 179.932 104.499 180.859C103.337 180.94 101.937 180.982 100.5 180.981C99.0562 180.979 97.6504 180.933 96.4854 180.849ZM107.887 131.825C107.888 131.825 107.881 131.826 107.867 131.829C107.88 131.826 107.887 131.825 107.887 131.825ZM57.3107 177.549C57.3107 177.549 57.3134 177.553 57.3183 177.562C57.3131 177.554 57.3106 177.549 57.3107 177.549ZM119.278 222.571C119.278 222.57 119.289 222.573 119.31 222.579C119.288 222.574 119.278 222.571 119.278 222.571ZM85.9972 182.006C85.9942 182.077 85.9898 182.107 85.988 182.103C85.9862 182.1 85.9872 182.061 85.9955 181.996C85.9961 181.999 85.9966 182.003 85.9972 182.006ZM87.7466 179.716C87.7966 179.698 87.8257 179.692 87.8277 179.693C87.8296 179.694 87.8047 179.703 87.7466 179.716ZM4.26353 208.38C4.26307 208.38 4.26717 208.369 4.27722 208.344C4.26905 208.367 4.26399 208.379 4.26353 208.38ZM133 72C133 90.2254 118.225 105 100 105C81.7746 105 67 90.2254 67 72C67 53.7746 81.7746 39 100 39C118.225 39 133 53.7746 133 72Z" stroke="#FF771D" stroke-width="8"/>
</svg>
