<svg width="450" height="450" viewBox="0 0 450 450" fill="none" xmlns="http://www.w3.org/2000/svg">
<path d="M83 100C69.193 100 58 111.193 58 125C58 138.807 69.193 150 83 150H233C246.807 150 258 138.807 258 125C258 111.193 246.807 100 233 100H83Z" fill="#DC3545"/>
<path d="M58 225C58 211.193 69.193 200 83 200H366.333C380.14 200 391.333 211.193 391.333 225C391.333 238.807 380.14 250 366.333 250H83C69.193 250 58 238.807 58 225Z" fill="#DC3545"/>
<path d="M83 300C69.193 300 58 311.193 58 325C58 338.807 69.193 350 83 350H299.667C313.473 350 324.667 338.807 324.667 325C324.667 311.193 313.473 300 299.667 300H83Z" fill="#DC3545"/>
<path d="M61.875 0C27.7024 0 0 34.6281 0 77.3438V372.656C0 415.373 27.7024 450 61.875 450H388.125C422.298 450 450 415.373 450 372.656V77.3438C450 34.6281 422.298 0 388.125 0H61.875ZM33.75 77.3438C33.75 57.9274 46.3419 42.1875 61.875 42.1875H388.125C403.659 42.1875 416.25 57.9274 416.25 77.3438V372.656C416.25 392.074 403.659 407.812 388.125 407.812H61.875C46.3419 407.812 33.75 392.074 33.75 372.656V77.3438Z" fill="#DC3545"/>
</svg>
