<svg width="556" height="556" viewBox="0 0 556 556" fill="none" xmlns="http://www.w3.org/2000/svg">
<g clip-path="url(#clip0_29_223)">
<path d="M555.849 254.115C555.78 253.061 555.583 252.053 555.235 251.057C555.108 250.686 555.015 250.327 554.853 249.968C554.297 248.764 553.591 247.628 552.618 246.667L552.606 246.656L486.5 180.538V115.833C486.5 115.578 486.373 115.358 486.349 115.104C486.28 114.084 486.083 113.1 485.759 112.127C485.631 111.756 485.539 111.397 485.365 111.038C484.797 109.81 484.091 108.64 483.095 107.644L378.845 3.39392C377.848 2.39775 376.667 1.67958 375.439 1.112C375.103 0.961417 374.756 0.857167 374.396 0.741333C373.4 0.393833 372.381 0.196917 371.327 0.127417C371.107 0.115833 370.898 0 370.667 0H81.0833C74.6893 0 69.5 5.18933 69.5 11.5833V180.538L3.39392 246.644L3.37075 246.667C2.39775 247.64 1.70275 248.775 1.14675 249.968C0.984583 250.327 0.891917 250.686 0.7645 251.057C0.417 252.053 0.2085 253.061 0.150583 254.115C0.127417 254.37 0 254.578 0 254.833V474.917C0 481.311 5.18933 486.5 11.5833 486.5H69.5V544.417C69.5 550.811 74.6893 556 81.0833 556H474.917C481.311 556 486.5 550.811 486.5 544.417V486.5H544.417C550.811 486.5 556 481.311 556 474.917V254.833C556 254.578 555.873 254.37 555.849 254.115ZM516.454 243.25H486.5V213.295L516.454 243.25ZM446.954 104.25H382.25V39.5455L446.954 104.25ZM92.6667 23.1667H359.083V115.833C359.083 122.227 364.273 127.417 370.667 127.417H463.333V185.333V243.25H92.6667V185.333V23.1667ZM69.5 213.295V243.25H39.5455L69.5 213.295ZM463.333 532.833H92.6667V486.5H463.333V532.833ZM532.833 463.333H23.1667V266.417H81.0833H474.917H532.833V463.333Z" fill="#FF771D" stroke="#FF771D" stroke-width="11"/>
<path d="M337.075 320.835H363.265V440.166H386.501V320.835H412.691V300.75H337.075V320.835Z" fill="#FF771D" stroke="#FF771D" stroke-width="11"/>
<path d="M320.43 309.506C316.688 306.298 312.46 304.028 307.723 302.719C302.997 301.41 298.398 300.75 293.939 300.75H255.343V440.166H278.579V384.242H295.12C299.974 384.242 304.7 383.385 309.298 381.682C313.897 379.979 317.963 377.35 321.507 373.806C325.052 370.261 327.901 365.836 330.079 360.508C332.245 355.191 333.334 348.994 333.334 341.905C333.334 334.028 332.117 327.461 329.685 322.213C327.252 316.966 324.171 312.727 320.43 309.506ZM305.568 359.141C302.024 363.01 297.495 364.944 291.981 364.944H278.591V320.638H291.981C297.495 320.638 302.024 322.341 305.568 325.758C309.113 329.175 310.885 334.619 310.885 342.102C310.885 349.585 309.113 355.261 305.568 359.141Z" fill="#FF771D" stroke="#FF771D" stroke-width="11"/>
<path d="M222.968 309.506C219.226 306.298 214.998 304.028 210.261 302.719C205.535 301.41 200.936 300.75 196.477 300.75H157.881V440.166H181.117V384.242H197.658C202.511 384.242 207.237 383.385 211.836 381.682C216.435 379.979 220.5 377.35 224.045 373.806C227.589 370.261 230.439 365.836 232.617 360.508C234.783 355.191 235.871 348.994 235.871 341.905C235.871 334.028 234.655 327.461 232.223 322.213C229.79 316.966 226.709 312.727 222.968 309.506ZM208.095 359.141C204.55 363.01 200.021 364.944 194.507 364.944H181.117V320.638H194.507C200.021 320.638 204.55 322.341 208.095 325.758C211.639 329.175 213.411 334.619 213.411 342.102C213.411 349.585 211.639 355.261 208.095 359.141Z" fill="#FF771D" stroke="#FF771D" stroke-width="11"/>
</g>
<rect x="0.5" y="0.5" width="555" height="555" stroke="black"/>
<defs>
<clipPath id="clip0_29_223">
<rect width="556" height="556" fill="white"/>
</clipPath>
</defs>
</svg>
