<svg width="487" height="647" viewBox="0 0 487 647" fill="none" xmlns="http://www.w3.org/2000/svg">
<path d="M486.125 566.125V181.969L304.156 0H81.75C60.3006 0 39.7297 8.52074 24.5627 23.6877C9.39573 38.8547 0.875 59.4256 0.875 80.875V566.125C0.875 587.574 9.39573 608.145 24.5627 623.312C39.7297 638.479 60.3006 647 81.75 647H405.25C426.699 647 447.27 638.479 462.437 623.312C477.604 608.145 486.125 587.574 486.125 566.125ZM304.156 121.312C304.156 137.4 310.547 152.828 321.922 164.203C333.297 175.578 348.725 181.969 364.812 181.969H445.688V566.125C445.688 576.85 441.427 587.135 433.844 594.719C426.26 602.302 415.975 606.562 405.25 606.562H81.75C71.0253 606.562 60.7399 602.302 53.1564 594.719C45.5729 587.135 41.3125 576.85 41.3125 566.125V80.875C41.3125 70.1503 45.5729 59.8649 53.1564 52.2814C60.7399 44.6979 71.0253 40.4375 81.75 40.4375H304.156V121.312Z" fill="#2ECA6A"/>
<path d="M106.134 569.644C98.2288 566.529 91.8667 560.428 88.4224 552.661C80.5371 536.971 83.1655 521.281 91.6574 508.098C99.664 495.684 112.928 485.13 127.93 476.274C146.936 465.502 167.023 456.759 187.858 450.192C204.013 421.086 218.355 391.011 230.803 360.137C223.385 343.263 217.563 325.731 213.415 307.771C209.937 291.596 208.603 275.582 211.555 261.834C214.588 247.519 222.635 234.66 237.839 228.554C245.603 225.44 254.014 223.701 262.183 225.44C266.292 226.315 270.154 228.093 273.491 230.646C276.827 233.199 279.553 236.462 281.471 240.2C285.03 246.831 286.324 254.595 286.607 261.955C286.89 269.557 286.122 277.968 284.706 286.784C281.31 307.407 273.788 332.64 263.679 359.329C274.844 383.183 288.106 405.998 303.308 427.506C321.307 426.102 339.408 426.78 357.251 429.528C371.971 432.197 386.933 437.413 396.071 448.332C400.924 454.155 403.876 461.272 404.159 469.278C404.442 477.042 402.258 484.725 398.579 492.045C395.391 498.827 390.449 504.635 384.264 508.867C378.145 512.845 370.93 514.797 363.641 514.447C350.256 513.881 337.194 506.521 325.912 497.585C312.191 486.245 299.829 473.354 289.074 459.169C261.729 462.282 234.709 467.776 208.32 475.587C196.237 497.017 182.444 517.437 167.073 536.647C155.266 550.8 142.447 563.174 129.588 568.472C122.193 571.786 113.823 572.205 106.134 569.644ZM161.897 492.772C155.158 495.873 148.971 499.081 143.337 502.397C130.073 510.242 121.46 517.884 117.173 524.516C113.372 530.379 113.291 534.625 115.556 539.114C115.987 539.977 116.338 540.57 116.607 540.893L118.023 540.408C123.563 538.143 132.378 530.905 143.701 517.278C150.148 509.4 156.221 501.223 161.897 492.772ZM228.215 438.991C241.721 435.851 255.345 433.248 269.057 431.186C261.704 419.912 254.824 408.337 248.434 396.491C242.088 410.828 235.345 424.986 228.215 438.95V438.991ZM327.125 457.187C333.218 463.792 339.081 469.319 344.716 473.767C354.421 481.45 361.174 483.998 364.854 484.119C365.84 484.273 366.848 484.057 367.684 483.512C369.376 482.193 370.688 480.449 371.485 478.458C372.917 475.992 373.735 473.218 373.871 470.37C373.83 469.424 373.458 468.522 372.82 467.823C370.717 465.315 364.732 461.676 351.873 459.371C343.691 458.023 335.417 457.307 327.125 457.228V457.187ZM246.655 315.413C250.028 304.427 252.729 293.246 254.742 281.931C255.982 274.329 256.494 268.061 256.279 263.128C256.3 260.405 255.862 257.698 254.985 255.121C252.96 255.361 250.983 255.907 249.121 256.738C245.603 258.154 242.732 261.025 241.196 268.182C239.578 275.946 239.982 287.148 243.056 301.422C244.026 305.924 245.239 310.588 246.695 315.413H246.655Z" fill="#2ECA6A"/>
</svg>
