<svg width="116" height="106" viewBox="0 0 116 106" fill="none" xmlns="http://www.w3.org/2000/svg">
<path d="M71.9627 95.2386L71.9661 95.2391C75.3211 95.7349 78.727 95.7852 82.0952 95.3887L82.6656 95.3216L83.135 95.6526C85.3338 97.2033 90.5442 100.383 99.6985 103.351C98.7276 99.411 98.0867 94.4303 98.3074 89.9474L98.3421 89.2427L98.907 88.8201C104.808 84.4054 108.866 78.137 109.929 70.8288C112.256 54.821 99.2911 39.3524 80.4856 36.6182C61.68 33.8841 44.8469 45.0203 42.5195 61.0281C40.1921 77.0358 53.1571 92.5045 71.9627 95.2386ZM82.2705 96.8784C78.7711 97.2904 75.2326 97.2381 71.7469 96.723L99.8675 104.98C90.1809 101.91 84.6456 98.5535 82.2705 96.8784Z" fill="#F78F8F" stroke="#C74343" stroke-width="3"/>
<path d="M37.7742 71.4807L37.7708 71.4799C34.2991 70.5906 30.9601 69.2465 27.8405 67.4825L27.3405 67.1997L26.7796 67.3233C23.987 67.9383 17.5664 68.9097 7.35981 68.0367C9.93512 64.5946 12.63 59.9658 14.2607 55.4742L14.5015 54.811L14.1442 54.2027C10.1987 47.4845 8.8065 39.7105 10.7626 32.1472C15.0479 15.5782 34.0217 5.81528 53.4574 10.842C72.8931 15.8687 84.7543 33.6065 80.469 50.1755C76.1837 66.7446 57.2099 76.5074 37.7742 71.4807Z" fill="#2ECA6A" stroke="#1EAC55" stroke-width="3"/>
<path d="M69.9414 45.1582C69.9414 47.209 69.6646 49.147 69.1108 50.9722C68.5776 52.7769 67.8086 54.4175 66.8037 55.894C65.8193 57.3706 64.6196 58.6626 63.2046 59.77C61.8101 60.8774 60.2515 61.749 58.5288 62.3848L67.8804 69.7983H56.2832L48.5928 63.6152H40.7178C38.0723 63.6152 35.6216 63.1641 33.3657 62.2617C31.1099 61.3389 29.1616 60.0571 27.521 58.4165C25.8804 56.7759 24.5884 54.8276 23.645 52.5718C22.7222 50.3159 22.2607 47.8447 22.2607 45.1582V36.7295C22.2607 34.0635 22.7222 31.6025 23.645 29.3467C24.5884 27.0703 25.8804 25.1221 27.521 23.502C29.1616 21.8613 31.1099 20.5796 33.3657 19.6567C35.6216 18.7339 38.0723 18.2725 40.7178 18.2725H51.5459C54.1914 18.2725 56.6318 18.7339 58.8672 19.6567C61.123 20.5796 63.0713 21.8613 64.7119 23.502C66.3525 25.1221 67.6343 27.0703 68.5571 29.3467C69.48 31.6025 69.9414 34.0635 69.9414 36.7295V45.1582ZM61.9434 36.7295C61.9434 35.1504 61.687 33.7251 61.1743 32.4536C60.6821 31.1616 59.9746 30.0645 59.0518 29.1621C58.1494 28.2393 57.0522 27.5317 55.7603 27.0396C54.4888 26.5269 53.084 26.2705 51.5459 26.2705H40.7178C39.1592 26.2705 37.7339 26.5269 36.4419 27.0396C35.1704 27.5317 34.0732 28.2393 33.1504 29.1621C32.2275 30.0645 31.5098 31.1616 30.9971 32.4536C30.5049 33.7251 30.2588 35.1504 30.2588 36.7295V45.1582C30.2588 46.7373 30.5049 48.1729 30.9971 49.4648C31.5098 50.7363 32.2275 51.8335 33.1504 52.7563C34.0732 53.6587 35.1704 54.3662 36.4419 54.8789C37.7339 55.3711 39.1592 55.6172 40.7178 55.6172H51.4844C53.043 55.6172 54.458 55.3711 55.7295 54.8789C57.0215 54.3662 58.1289 53.6587 59.0518 52.7563C59.9746 51.8335 60.6821 50.7363 61.1743 49.4648C61.687 48.1729 61.9434 46.7373 61.9434 45.1582V36.7295Z" fill="white"/>
<path d="M66.4199 48.8408H85.8291C88.7588 48.8408 91.2979 49.1501 93.4463 49.7686C95.5947 50.3708 97.377 51.2497 98.793 52.4053C100.209 53.5609 101.259 54.9688 101.942 56.6289C102.642 58.2891 102.992 60.1689 102.992 62.2686C102.992 63.6846 102.821 65.0355 102.479 66.3213C102.138 67.5908 101.609 68.7627 100.893 69.8369C100.193 70.9111 99.3057 71.8714 98.2314 72.7178C97.1572 73.5479 95.8958 74.2396 94.4473 74.793L102.748 87H93.2754L86.0977 76.1602H85.8779L74.1592 76.1357V87H66.4199V48.8408ZM86.0244 69.4463C87.4893 69.4463 88.7669 69.2754 89.8574 68.9336C90.9642 68.5918 91.8838 68.1117 92.6162 67.4932C93.3649 66.8747 93.9183 66.126 94.2764 65.2471C94.6507 64.3519 94.8379 63.359 94.8379 62.2686C94.8379 60.1364 94.1055 58.4925 92.6406 57.3369C91.1758 56.165 88.9704 55.5791 86.0244 55.5791H74.1592V69.4463H86.0244Z" fill="white"/>
</svg>
