<svg width="116" height="116" viewBox="0 0 116 116" fill="none" xmlns="http://www.w3.org/2000/svg">
<path d="M71.9627 105.239L71.9661 105.239C75.3211 105.735 78.727 105.785 82.0952 105.389L82.6656 105.322L83.135 105.653C85.3338 107.203 90.5442 110.383 99.6985 113.351C98.7276 109.411 98.0867 104.43 98.3074 99.9474L98.3421 99.2427L98.907 98.8201C104.808 94.4054 108.866 88.137 109.929 80.8288C112.256 64.821 99.2911 49.3524 80.4856 46.6182C61.68 43.8841 44.8469 55.0203 42.5195 71.0281C40.1921 87.0358 53.1571 102.504 71.9627 105.239ZM82.2705 106.878C78.7711 107.29 75.2326 107.238 71.7469 106.723L99.8675 114.98C90.1809 111.91 84.6456 108.553 82.2705 106.878Z" fill="#F78F8F" stroke="#C74343" stroke-width="3"/>
<path d="M37.7742 81.4807L37.7708 81.4799C34.2991 80.5906 30.9601 79.2465 27.8405 77.4825L27.3405 77.1997L26.7796 77.3233C23.987 77.9383 17.5664 78.9097 7.35981 78.0367C9.93512 74.5946 12.63 69.9658 14.2607 65.4742L14.5015 64.811L14.1442 64.2027C10.1987 57.4845 8.8065 49.7105 10.7626 42.1472C15.0479 25.5782 34.0217 15.8153 53.4574 20.842C72.8931 25.8687 84.7543 43.6065 80.469 60.1755C76.1837 76.7446 57.2099 86.5074 37.7742 81.4807Z" fill="#2ECA6A" stroke="#1EAC55" stroke-width="3"/>
<path d="M73.14 47.94C73.14 53.74 71.06 58.52 66.9 62.28L73.14 72.84H59.52C57.72 72.84 55.94 72.5 54.18 71.82C52.46 71.14 51.02 70.2 49.86 69C47.98 69.2 46.26 69.3 44.7 69.3C39.34 69.3 34.5 68.48 30.18 66.84C25.9 65.2 22.5 62.78 19.98 59.58C17.5 56.34 16.26 52.46 16.26 47.94C16.26 43.46 17.5 39.62 19.98 36.42C22.5 33.22 25.92 30.8 30.24 29.16C34.56 27.48 39.38 26.64 44.7 26.64C50.02 26.64 54.84 27.48 59.16 29.16C63.48 30.8 66.88 33.22 69.36 36.42C71.88 39.62 73.14 43.46 73.14 47.94ZM44.7 65.76C46.42 65.76 47.68 65 48.48 63.48C49.16 62.32 49.62 60.26 49.86 57.3C49.98 55.74 50.04 52.62 50.04 47.94C50.04 43.86 49.94 40.52 49.74 37.92C49.62 35.52 49.18 33.7 48.42 32.46C47.62 30.94 46.38 30.18 44.7 30.18C43.06 30.18 41.82 30.94 40.98 32.46C40.3 33.66 39.86 35.48 39.66 37.92C39.46 39.88 39.36 43.22 39.36 47.94C39.36 52.78 39.44 55.9 39.6 57.3C39.8 60.22 40.24 62.28 40.92 63.48C41.76 65 43.02 65.76 44.7 65.76Z" fill="white"/>
<path d="M65.12 71H91.88C93.1867 71 94.3867 71.3333 95.48 72C96.6 72.64 97.48 73.52 98.12 74.64C98.7867 75.7333 99.12 76.9333 99.12 78.24C99.12 79.9733 98.5867 81.5467 97.52 82.96C96.4533 84.3733 95.1067 85.28 93.48 85.68C94.92 86.08 96.0933 86.84 97 87.96C97.9333 89.08 98.4 90.3467 98.4 91.76V99H85V90.32C85 89.4667 84.84 88.8 84.52 88.32C84.1467 87.76 83.72 87.3467 83.24 87.08C82.7067 86.7867 82.1067 86.5733 81.44 86.44C80.7467 86.3067 80.0933 86.2267 79.48 86.2L78.4 86.16V99H65.12V71ZM79.8 83.84C80.76 83.84 81.64 83.6133 82.44 83.16C83.2667 82.68 83.9067 82.04 84.36 81.24C84.84 80.4133 85.08 79.5333 85.08 78.6C85.08 77.64 84.84 76.76 84.36 75.96C83.9067 75.1333 83.2667 74.48 82.44 74C81.64 73.52 80.76 73.28 79.8 73.28H78.4V83.88L79.8 83.84Z" fill="white"/>
</svg>
