<svg width="800" height="800" viewBox="0 0 800 800" fill="none" xmlns="http://www.w3.org/2000/svg">
<path d="M644.625 784.125H159C149 784.125 139 782.25 129.625 778.5C120.875 774.75 112.75 769.125 105.875 762.25C99 755.375 93.375 747.25 89.625 738.5C85.875 729.125 84 719.75 84 709.125V203.5C84 193.5 85.875 183.5 89.625 174.125C93.375 165.375 99 157.25 105.875 150.375C112.75 143.5 120.875 137.875 129.625 134.125C139 130.375 148.375 128.5 159 128.5H232.75V166H159C138.375 166 121.5 182.875 121.5 203.5V709.125C121.5 729.75 138.375 746.625 159 746.625H644.625C665.25 746.625 682.125 729.75 682.125 709.125V203.5C682.125 182.875 665.25 166 644.625 166H570.875V128.5H644C654 128.5 664 130.375 673.375 134.125C682.125 137.875 690.25 143.5 697.125 150.375C704 157.25 709.625 165.375 713.375 174.125C717.125 183.5 719 192.875 719 203.5V709.125C719 719.125 717.125 729.125 713.375 738.5C709.625 747.25 704 755.375 697.125 762.25C690.25 769.125 682.125 774.75 673.375 778.5C664.625 782.25 654.625 784.125 644.625 784.125Z" fill="#FF771D"/>
<path d="M588.375 241H214.625V119.75C214.625 94.125 235.25 72.875 261.5 72.875H309.625C327.125 38.5 362.125 16 401.5 16C440.875 16 475.875 38.5 493.375 72.875H541.5C567.125 72.875 588.375 93.5 588.375 119.75V241ZM252.125 203.5H550.875V119.75C550.875 114.75 546.5 110.375 541.5 110.375H467.75L463.375 97.875C454 71.625 429.625 54.125 401.5 54.125C373.375 54.125 349 71.625 339.625 97.875L335.25 110.375H261.5C256.5 110.375 252.125 114.75 252.125 119.75V203.5Z" fill="#FF771D"/>
<path fill-rule="evenodd" clip-rule="evenodd" d="M336.309 324L304 340.528V611.472L336.309 628L527 492.528V459.472L336.309 324ZM479.981 476L344.862 571.996V380.004L479.981 476Z" fill="#FF771D"/>
</svg>
