<svg width="500" height="376" viewBox="0 0 500 376" fill="none" xmlns="http://www.w3.org/2000/svg">
<path d="M468.75 375.5C468.75 375.5 500 375.5 500 344.25C500 313 468.75 219.25 343.75 219.25C218.75 219.25 187.5 313 187.5 344.25C187.5 375.5 218.75 375.5 218.75 375.5H468.75ZM219.437 344.25L218.75 344.125C218.781 335.875 223.969 311.938 242.5 290.375C259.75 270.156 290.062 250.5 343.75 250.5C397.406 250.5 427.719 270.187 445 290.375C463.531 311.938 468.687 335.906 468.75 344.125L468.5 344.188L468.062 344.25H219.437ZM343.75 156.75C360.326 156.75 376.223 150.165 387.944 138.444C399.665 126.723 406.25 110.826 406.25 94.25C406.25 77.674 399.665 61.777 387.944 50.056C376.223 38.335 360.326 31.75 343.75 31.75C327.174 31.75 311.277 38.335 299.556 50.056C287.835 61.777 281.25 77.674 281.25 94.25C281.25 110.826 287.835 126.723 299.556 138.444C311.277 150.165 327.174 156.75 343.75 156.75ZM437.5 94.25C437.5 106.561 435.075 118.752 430.364 130.127C425.652 141.501 418.747 151.836 410.041 160.541C401.336 169.247 391.001 176.152 379.627 180.864C368.252 185.575 356.061 188 343.75 188C331.439 188 319.248 185.575 307.873 180.864C296.499 176.152 286.164 169.247 277.459 160.541C268.753 151.836 261.848 141.501 257.136 130.127C252.425 118.752 250 106.561 250 94.25C250 69.386 259.877 45.54 277.459 27.9587C295.04 10.3772 318.886 0.5 343.75 0.5C368.614 0.5 392.46 10.3772 410.041 27.9587C427.623 45.54 437.5 69.386 437.5 94.25ZM216.75 228C204.242 224.091 191.36 221.504 178.312 220.281C170.98 219.566 163.617 219.222 156.25 219.25C31.25 219.25 0 313 0 344.25C0 365.083 10.4167 375.5 31.25 375.5H163C158.37 365.743 156.059 355.048 156.25 344.25C156.25 312.688 168.031 280.437 190.313 253.5C197.906 244.312 206.75 235.719 216.75 228ZM153.75 250.5C135.266 278.295 125.276 310.871 125 344.25H31.25C31.25 336.125 36.375 312.063 55 290.375C72.0313 270.5 101.625 251.125 153.75 250.531V250.5ZM46.875 109.875C46.875 85.011 56.7522 61.165 74.3337 43.584C91.9153 26.0022 115.761 16.125 140.625 16.125C165.489 16.125 189.335 26.0022 206.916 43.584C224.498 61.165 234.375 85.011 234.375 109.875C234.375 134.739 224.498 158.585 206.916 176.166C189.335 193.748 165.489 203.625 140.625 203.625C115.761 203.625 91.9153 193.748 74.3337 176.166C56.7522 158.585 46.875 134.739 46.875 109.875ZM140.625 47.375C124.049 47.375 108.152 53.96 96.4308 65.681C84.7098 77.402 78.125 93.299 78.125 109.875C78.125 126.451 84.7098 142.348 96.4308 154.069C108.152 165.79 124.049 172.375 140.625 172.375C157.201 172.375 173.098 165.79 184.819 154.069C196.54 142.348 203.125 126.451 203.125 109.875C203.125 93.299 196.54 77.402 184.819 65.681C173.098 53.96 157.201 47.375 140.625 47.375Z" fill="#2ECA6A"/>
</svg>
