<svg width="500" height="500" viewBox="0 0 500 500" fill="none" xmlns="http://www.w3.org/2000/svg">
<path d="M468.75 437.5C468.75 437.5 500 437.5 500 406.25C500 375 468.75 281.25 343.75 281.25C218.75 281.25 187.5 375 187.5 406.25C187.5 437.5 218.75 437.5 218.75 437.5H468.75ZM219.437 406.25L218.75 406.125C218.781 397.875 223.969 373.938 242.5 352.375C259.75 332.156 290.062 312.5 343.75 312.5C397.406 312.5 427.719 332.187 445 352.375C463.531 373.938 468.687 397.906 468.75 406.125L468.5 406.188L468.062 406.25H219.437ZM343.75 218.75C360.326 218.75 376.223 212.165 387.944 200.444C399.665 188.723 406.25 172.826 406.25 156.25C406.25 139.674 399.665 123.777 387.944 112.056C376.223 100.335 360.326 93.75 343.75 93.75C327.174 93.75 311.277 100.335 299.556 112.056C287.835 123.777 281.25 139.674 281.25 156.25C281.25 172.826 287.835 188.723 299.556 200.444C311.277 212.165 327.174 218.75 343.75 218.75ZM437.5 156.25C437.5 168.561 435.075 180.752 430.364 192.127C425.652 203.501 418.747 213.836 410.041 222.541C401.336 231.247 391.001 238.152 379.627 242.864C368.252 247.575 356.061 250 343.75 250C331.439 250 319.248 247.575 307.873 242.864C296.499 238.152 286.164 231.247 277.459 222.541C268.753 213.836 261.848 203.501 257.136 192.127C252.425 180.752 250 168.561 250 156.25C250 131.386 259.877 107.54 277.459 89.9587C295.04 72.3772 318.886 62.5 343.75 62.5C368.614 62.5 392.46 72.3772 410.041 89.9587C427.623 107.54 437.5 131.386 437.5 156.25ZM216.75 290C204.242 286.091 191.36 283.504 178.312 282.281C170.98 281.566 163.617 281.222 156.25 281.25C31.25 281.25 0 375 0 406.25C0 427.083 10.4167 437.5 31.25 437.5H163C158.37 427.743 156.059 417.048 156.25 406.25C156.25 374.688 168.031 342.437 190.313 315.5C197.906 306.312 206.75 297.719 216.75 290ZM153.75 312.5C135.266 340.295 125.276 372.871 125 406.25H31.25C31.25 398.125 36.375 374.063 55 352.375C72.0313 332.5 101.625 313.125 153.75 312.531V312.5ZM46.875 171.875C46.875 147.011 56.7522 123.165 74.3337 105.584C91.9153 88.0022 115.761 78.125 140.625 78.125C165.489 78.125 189.335 88.0022 206.916 105.584C224.498 123.165 234.375 147.011 234.375 171.875C234.375 196.739 224.498 220.585 206.916 238.166C189.335 255.748 165.489 265.625 140.625 265.625C115.761 265.625 91.9153 255.748 74.3337 238.166C56.7522 220.585 46.875 196.739 46.875 171.875ZM140.625 109.375C124.049 109.375 108.152 115.96 96.4308 127.681C84.7098 139.402 78.125 155.299 78.125 171.875C78.125 188.451 84.7098 204.348 96.4308 216.069C108.152 227.79 124.049 234.375 140.625 234.375C157.201 234.375 173.098 227.79 184.819 216.069C196.54 204.348 203.125 188.451 203.125 171.875C203.125 155.299 196.54 139.402 184.819 127.681C173.098 115.96 157.201 109.375 140.625 109.375Z" fill="#4154F1"/>
</svg>
