<svg width="250" height="250" viewBox="0 0 250 250" fill="none" xmlns="http://www.w3.org/2000/svg">
<path fill-rule="evenodd" clip-rule="evenodd" d="M102.322 112.714C107.495 109.318 114.461 108.699 120.543 112.47L158.577 136.048C164.637 139.805 167.304 146.301 167.304 152.198C167.304 158.096 164.637 164.592 158.577 168.348L120.543 191.927C114.461 195.697 107.495 195.079 102.322 191.682C97.2388 188.344 93.9784 182.467 93.9784 175.776V128.619C93.9784 121.93 97.2388 116.051 102.322 112.714ZM111.609 126.858C111.402 126.995 110.9 127.495 110.9 128.619V175.776C110.9 176.901 111.402 177.401 111.609 177.538L111.624 177.546L149.66 153.966C149.9 153.818 150.382 153.307 150.382 152.198C150.382 151.089 149.9 150.577 149.66 150.43L111.627 126.852L111.609 126.858Z" fill="#DC3545" stroke="#012970"/>
<path fill-rule="evenodd" clip-rule="evenodd" d="M87.7661 3.73153C85.2858 3.73086 83.3843 3.73029 81.722 3.90865C66.4463 5.54809 54.7537 18.0923 54.044 33.2879C40.6101 37.2984 31.0374 49.7288 30.8648 63.9856C24.0869 66.0199 18.2408 69.2285 13.4549 74.3979C6.09997 82.3423 3.82068 92.1333 3.73393 103.57C3.65044 114.565 5.60971 128.46 8.04273 145.715L12.9949 180.839C14.8969 194.331 16.4421 205.292 18.8464 213.881C21.3616 222.868 25.0692 230.261 31.9337 235.945C38.7437 241.583 46.8231 244.014 56.3728 245.161C65.6067 246.268 77.2228 246.268 91.6855 246.268H158.313C172.776 246.268 184.393 246.268 193.626 245.161C203.177 244.014 211.256 241.583 218.066 235.945C224.931 230.261 228.638 222.868 231.153 213.881C233.557 205.292 235.103 194.331 237.004 180.839L241.957 145.715C244.39 128.46 246.35 114.565 246.266 103.57C246.179 92.1333 243.899 82.3423 236.544 74.3979C231.758 69.227 225.91 66.0184 219.13 63.9841C218.956 49.7288 209.386 37.2998 195.953 33.2885C195.243 18.0926 183.55 5.54809 168.275 3.90865C166.612 3.73029 164.712 3.73086 162.231 3.73153H87.7661ZM201.828 61.0132C200.281 54.1587 194.158 48.8546 186.612 48.8546H63.3828C55.837 48.8546 49.7138 54.1587 48.1664 61.0135C58.6101 60.1352 71.4131 60.1352 86.825 60.1356H163.174C178.584 60.1352 191.385 60.1352 201.828 61.0132ZM178.783 31.9335C177.581 26.026 172.676 21.3994 166.469 20.7332C165.834 20.6651 164.929 20.6527 161.762 20.6527H88.2355C85.0672 20.6527 84.1627 20.6651 83.5276 20.7332C77.3209 21.3994 72.4157 26.026 71.2142 31.9335H178.783ZM25.8718 85.8934C29.2887 82.2027 34.427 79.7546 44.4112 78.4266C54.5769 77.0744 68.1851 77.0568 87.4616 77.0568H162.538C181.815 77.0568 195.422 77.0744 205.589 78.4266C215.572 79.7546 220.71 82.2027 224.128 85.8934C227.466 89.4986 229.275 94.4042 229.345 103.698C229.418 113.288 227.657 125.934 225.103 144.045L220.333 177.887C218.327 192.111 216.922 201.946 214.858 209.32C212.871 216.422 210.531 220.215 207.275 222.912C203.964 225.653 199.519 227.411 191.611 228.36C183.503 229.334 172.904 229.347 157.766 229.347H92.2332C77.0955 229.347 66.497 229.334 58.3888 228.36C50.481 227.411 46.0358 225.653 42.725 222.912C39.4683 220.215 37.129 216.422 35.1412 209.32C33.0772 201.946 31.6727 192.111 29.6673 177.887L24.8959 144.045C22.3425 125.934 20.5818 113.288 20.6546 103.698C20.7252 94.4042 22.5343 89.4986 25.8718 85.8934Z" fill="#DC3545" stroke="#012970"/>
</svg>
